<mxfile host="65bd71144e">
    <diagram id="KwS1-fvpqOeSRzaIrFDM" name="Страница 1">
        <mxGraphModel dx="1767" dy="797" grid="1" gridSize="10" guides="1" tooltips="1" connect="1" arrows="1" fold="1" page="1" pageScale="1" pageWidth="1169" pageHeight="827" math="0" shadow="0">
            <root>
                <mxCell id="0"/>
                <mxCell id="1" parent="0"/>
                <mxCell id="2" value="&lt;p style=&quot;margin: 0px ; margin-top: 6px ; text-align: center&quot;&gt;&lt;b&gt;VacuumCleanerCloudService&lt;/b&gt;&lt;/p&gt;&lt;hr&gt;&lt;p style=&quot;margin: 0px ; margin-left: 8px&quot;&gt;&lt;br&gt;&lt;/p&gt;" style="align=left;overflow=fill;html=1;dropTarget=0;" vertex="1" parent="1">
                    <mxGeometry x="420" y="71" width="260" height="80" as="geometry"/>
                </mxCell>
                <mxCell id="3" value="" style="shape=component;jettyWidth=8;jettyHeight=4;" vertex="1" parent="2">
                    <mxGeometry x="1" width="20" height="20" relative="1" as="geometry">
                        <mxPoint x="-24" y="4" as="offset"/>
                    </mxGeometry>
                </mxCell>
                <mxCell id="4" value="«interface»&lt;br&gt;&lt;b&gt;VacuumCleanerService API&lt;/b&gt;" style="html=1;" vertex="1" parent="1">
                    <mxGeometry x="420" y="201" width="260" height="50" as="geometry"/>
                </mxCell>
                <mxCell id="5" value="" style="endArrow=block;dashed=1;endFill=0;endSize=12;html=1;exitX=0.5;exitY=1;exitDx=0;exitDy=0;entryX=0.5;entryY=0;entryDx=0;entryDy=0;" edge="1" parent="1" source="2" target="4">
                    <mxGeometry width="160" relative="1" as="geometry">
                        <mxPoint x="510" y="261" as="sourcePoint"/>
                        <mxPoint x="670" y="261" as="targetPoint"/>
                    </mxGeometry>
                </mxCell>
                <mxCell id="6" value="BFF-service" style="shape=module;align=left;spacingLeft=20;align=center;verticalAlign=top;" vertex="1" parent="1">
                    <mxGeometry x="230" y="321" width="170" height="60" as="geometry"/>
                </mxCell>
                <mxCell id="7" value="" style="endArrow=open;endFill=1;endSize=12;html=1;exitX=1;exitY=0.5;exitDx=0;exitDy=0;entryX=0.5;entryY=1;entryDx=0;entryDy=0;" edge="1" parent="1" source="6" target="4">
                    <mxGeometry width="160" relative="1" as="geometry">
                        <mxPoint x="500" y="421" as="sourcePoint"/>
                        <mxPoint x="660" y="421" as="targetPoint"/>
                        <Array as="points">
                            <mxPoint x="550" y="351"/>
                        </Array>
                    </mxGeometry>
                </mxCell>
                <mxCell id="8" value="&lt;p style=&quot;margin: 0px ; margin-top: 6px ; text-align: center&quot;&gt;&lt;b&gt;Clien Application&lt;/b&gt;&lt;/p&gt;&lt;hr&gt;&lt;p style=&quot;margin: 0px ; margin-left: 8px&quot;&gt;&lt;br&gt;&lt;/p&gt;" style="align=left;overflow=fill;html=1;dropTarget=0;" vertex="1" parent="1">
                    <mxGeometry x="420" y="441" width="260" height="80" as="geometry"/>
                </mxCell>
                <mxCell id="9" value="" style="shape=component;jettyWidth=8;jettyHeight=4;" vertex="1" parent="8">
                    <mxGeometry x="1" width="20" height="20" relative="1" as="geometry">
                        <mxPoint x="-24" y="4" as="offset"/>
                    </mxGeometry>
                </mxCell>
                <mxCell id="10" value="" style="endArrow=open;endFill=1;endSize=12;html=1;exitX=0;exitY=0.5;exitDx=0;exitDy=0;entryX=0.5;entryY=1;entryDx=0;entryDy=0;" edge="1" parent="1" source="8" target="6">
                    <mxGeometry width="160" relative="1" as="geometry">
                        <mxPoint x="500" y="421" as="sourcePoint"/>
                        <mxPoint x="660" y="421" as="targetPoint"/>
                        <Array as="points">
                            <mxPoint x="315" y="481"/>
                        </Array>
                    </mxGeometry>
                </mxCell>
                <mxCell id="11" value="Структурная схема BFF взаимодействия" style="text;html=1;align=center;verticalAlign=middle;resizable=0;points=[];autosize=1;strokeColor=none;fillColor=none;" vertex="1" parent="1">
                    <mxGeometry x="410" y="20" width="240" height="20" as="geometry"/>
                </mxCell>
            </root>
        </mxGraphModel>
    </diagram>
</mxfile>